<?xml version="1.0" standalone="no"?>
<!DOCTYPE svg PUBLIC "-//W3C//DTD SVG 1.1//EN" "http://www.w3.org/Graphics/SVG/1.1/DTD/svg11.dtd" >
<svg xmlns="http://www.w3.org/2000/svg">
<metadata>
This is a custom SVG webfont generated by Font Squirrel.
Copyright   : 19911993 Tilde Ltd AG Fonts collection
</metadata>
<defs>
<font id="AGLettericaExtraCompressRoman" horiz-adv-x="757" >
<font-face units-per-em="2048" ascent="1638" descent="-410" />
<missing-glyph horiz-adv-x="378" />
<glyph unicode=" "  horiz-adv-x="378" />
<glyph unicode="&#x09;" horiz-adv-x="378" />
<glyph unicode="&#xa0;" horiz-adv-x="378" />
<glyph unicode="!" horiz-adv-x="530" d="M135 0v303h260v-303h-260zM135 375v1083h260v-1083h-260z" />
<glyph unicode="&#x22;" horiz-adv-x="681" d="M31 903v555h245v-555h-245zM406 903v555h245v-555h-245z" />
<glyph unicode="#" d="M25 410l8 143h139l29 299h-123l8 143h129l43 463h141l-43 -463h127l43 463h142l-43 -463h108l-8 -143h-115l-28 -299h110l-8 -143h-117l-39 -410h-141l39 410h-127l-39 -410h-141l39 410h-133zM313 553h127l29 299h-127z" />
<glyph unicode="$" d="M35 1038v183q0 127 84 196.5t209 69.5v106h133v-106q109 0 180 -72q35 -35 54.5 -85t19.5 -109v-283h-289v236q0 41 -10 68.5t-41 27.5t-41 -28t-10 -68q0 -166 102 -271q96 -90 195 -180q104 -131 104 -358v-127q0 -123 -76 -195t-188 -72v-106h-133v106q-121 0 -199 68 q-84 74 -84 199v335h289v-288q0 -41 10 -69t41 -28t41 28t10 69q0 158 -63 268q-43 76 -140 158q-111 96 -137 133q-61 81 -61 194z" />
<glyph unicode="%" horiz-adv-x="1099" d="M39 891v328q0 240 219 239q219 0 219 -239v-328q0 -240 -219 -240t-219 240zM223 831q0 -49 35 -49t35 49v447q0 49 -35 49t-35 -49v-447zM238 -29l507 1516h119l-504 -1516h-122zM623 240v327q0 240 219 240t219 -240v-327q0 -240 -219 -240t-219 240zM807 180 q0 -49 35 -49t35 49v447q0 49 -35 49t-35 -49v-447z" />
<glyph unicode="&#x26;" horiz-adv-x="872" d="M29 303v260q0 115 22 172q33 82 125 119q-57 63 -78.5 123.5t-21.5 140.5v41q0 168 59 242q70 86 242 86q188 0 262 -86q63 -74 63 -242v-41q0 -135 -49 -192q-37 -43 -194 -127l114 -209l5 211h233v-199q0 -106 -6 -179t-12 -155q0 -37 36 -37h39v-231h-112 q-66 0 -99 43q-45 -33 -118.5 -52.5t-139.5 -19.5q-170 0 -266 80q-104 86 -104 252zM317 332q0 -68 22.5 -106t78.5 -38q63 0 106 50l-202 374zM338 1047q0 -20 7 -41t22 -43q33 4 53 30.5t20 77.5v143q0 55 -51 56q-23 0 -37 -16.5t-14 -39.5v-167z" />
<glyph unicode="'" horiz-adv-x="454" d="M104 903v555h246v-555h-246z" />
<glyph unicode="(" horiz-adv-x="606" d="M53 633q0 209 78 442q66 195 186 412h236q-119 -219 -174 -414q-61 -213 -62 -442q0 -238 47.5 -419t163.5 -405h-229q-119 209 -178 398q-68 213 -68 428z" />
<glyph unicode=")" horiz-adv-x="606" d="M53 -193q119 219 177.5 423t58.5 434q0 238 -47 419t-164 404h229q119 -209 178 -397q68 -213 68 -428q0 -209 -78 -443q-66 -195 -186 -412h-236z" />
<glyph unicode="*" d="M45 1155l57 166l189 -68v205h172v-207l188 76l60 -170l-201 -59l143 -183l-135 -98l-139 184l-133 -184l-148 98l142 181z" />
<glyph unicode="+" horiz-adv-x="1138" d="M68 467v238h383v385h237v-385h383v-238h-383v-385h-237v385h-383z" />
<glyph unicode="," horiz-adv-x="378" d="M18 -258l74 561h266l-174 -561h-166z" />
<glyph unicode="-" horiz-adv-x="530" d="M88 541v188h354v-188h-354z" />
<glyph unicode="." horiz-adv-x="378" d="M59 0v303h260v-303h-260z" />
<glyph unicode="/" horiz-adv-x="417" d="M-10 -29l274 1516h166l-280 -1516h-160z" />
<glyph unicode="0" d="M39 238v983q0 135 102 204q92 61 238 62q150 0 237 -60q102 -68 103 -206v-983q0 -135 -103 -205q-92 -61 -237 -62q-150 0 -238 60q-102 68 -102 207zM328 285q0 -41 10 -69t41 -28t41 28t10 69v889q0 41 -10 68.5t-41 27.5t-41 -28t-10 -68v-889z" />
<glyph unicode="1" d="M80 1118v176q92 0 145.5 39t77.5 125h229v-1458h-288v1118h-164z" />
<glyph unicode="2" d="M39 0v301q0 109 100 258l189 275q102 176 102 340q0 41 -10 68.5t-41 27.5t-41 -28t-10 -68v-236h-289v283q0 135 102 204q92 61 238 62q150 0 237 -60q102 -68 103 -206v-62q0 -176 -101 -371q-2 -6 -188 -307q-102 -166 -102 -264h391v-217h-680z" />
<glyph unicode="3" d="M39 238v335h289v-288q0 -41 10 -69t41 -28t41 28t10 69v254q0 68 -22.5 88t-104.5 20h-57v217h57q78 0 102.5 20.5t24.5 88.5v201q0 41 -10 68.5t-41 27.5t-41 -28t-10 -68v-236h-289v283q0 135 102 204q92 61 238 62q150 0 237 -60q102 -68 103 -206v-166 q0 -129 -37 -193q-45 -78 -162 -94v-10q113 -16 160 -94q39 -66 39 -193v-233q0 -135 -103 -205q-92 -61 -237 -62q-150 0 -238 60q-102 68 -102 207z" />
<glyph unicode="4" d="M-6 365v204l268 889h402v-889h92v-204h-92v-365h-279v365h-391zM219 569h166v695z" />
<glyph unicode="5" d="M39 238v340h289v-293q0 -41 10 -69t41 -28t41 28t10 69v440q0 39 -12 51t-39 12q-31 0 -41 -17t-10 -46h-289v733h672v-217h-383v-278q53 72 172 71q219 0 219 -260v-536q0 -135 -103 -205q-92 -61 -237 -62q-150 0 -238 60q-102 68 -102 207z" />
<glyph unicode="6" d="M39 238v983q0 135 102 204q92 61 238 62q150 0 237 -60q102 -68 103 -206v-279h-289v232q0 41 -10 68.5t-41 27.5t-41 -28t-10 -68v-357q70 57 157 57q127 0 185 -77q49 -66 49 -195v-364q0 -135 -103 -205q-92 -61 -237 -62q-150 0 -238 60q-102 68 -102 207zM328 285 q0 -41 10 -69t41 -28t41 28t10 69v239q0 41 -10 69t-41 28t-41 -28t-10 -69v-239z" />
<glyph unicode="7" d="M18 1241v217h732v-217l-359 -1241h-311l375 1241h-437z" />
<glyph unicode="8" d="M39 238v274q0 102 41 168q51 82 147 82q-102 23 -145 89.5t-43 176.5v193q0 135 102 204q92 61 238 62q150 0 237 -60q102 -68 103 -206v-193q0 -111 -41 -172q-47 -72 -154 -90q106 -2 156 -84q39 -63 39 -170v-274q0 -135 -103 -205q-92 -61 -237 -62q-150 0 -238 60 q-102 68 -102 207zM328 285q0 -41 10 -69t41 -28t41 28t10 69v262q0 41 -10 68.5t-41 27.5t-41 -27.5t-10 -68.5v-262zM328 981q0 -41 10 -68.5t41 -27.5t41 27.5t10 68.5v193q0 41 -10 68.5t-41 27.5t-41 -28t-10 -68v-193z" />
<glyph unicode="9" d="M39 238v278h289v-231q0 -41 10 -69t41 -28t41 28t10 69v356q-70 -57 -158 -57q-127 0 -184 78q-49 66 -49 194v365q0 135 102 204q92 61 238 62q150 0 237 -60q102 -68 103 -206v-983q0 -135 -103 -205q-92 -61 -237 -62q-150 0 -238 60q-102 68 -102 207zM328 934 q0 -41 10 -68.5t41 -27.5t41 27.5t10 68.5v240q0 41 -10 68.5t-41 27.5t-41 -28t-10 -68v-240z" />
<glyph unicode=":" horiz-adv-x="378" d="M59 0v303h260v-303h-260zM59 868v303h260v-303h-260z" />
<glyph unicode=";" horiz-adv-x="378" d="M18 -258l74 561h266l-174 -561h-166zM78 868v303h260v-303h-260z" />
<glyph unicode="&#x3c;" horiz-adv-x="1138" d="M123 504v164l895 376v-200l-621 -258l621 -258v-201z" />
<glyph unicode="=" horiz-adv-x="1138" d="M68 229v238h1003v-238h-1003zM68 705v237h1003v-237h-1003z" />
<glyph unicode="&#x3e;" horiz-adv-x="1138" d="M121 127v201l620 258l-620 258v200l895 -376v-164z" />
<glyph unicode="?" horiz-adv-x="872" d="M129 932v272q0 145 87 214t239 69q137 0 212.5 -69.5t75.5 -215.5v-108q0 -111 -26 -185q-16 -49 -58 -98q-49 -57 -59 -78q-27 -49 -27 -131v-227h-260v311q0 55 14.5 93t69 114t70.5 128t16 114v67q0 45 -4 58q-10 31 -43 30q-31 0 -39 -23.5t-8 -64.5v-270h-260z M313 0v303h260v-303h-260z" />
<glyph unicode="@" horiz-adv-x="1638" d="M74 727q0 324 226 542t554 218q283 0 489 -166q221 -176 222 -449q0 -233 -135 -389q-172 -199 -390 -198q-45 0 -75.5 26.5t-30.5 71.5l-4 4q-39 -43 -92.5 -72.5t-102.5 -29.5q-133 0 -235.5 108.5t-102.5 255.5q0 188 111 322q119 143 299 143q80 0 142.5 -27.5 t107.5 -91.5l18 99h193l-90 -484q-4 -16 -7.5 -34.5t-3.5 -32.5q0 -45 27 -45q72 0 125 71q63 86 63 238q0 238 -151 369q-143 123 -383 122q-250 0 -400.5 -158.5t-150.5 -412.5q0 -264 159.5 -415.5t426.5 -151.5q117 0 211 29.5t174 89.5h198q-221 -307 -600 -308 q-332 0 -559 211q-233 217 -233 545zM639 684q0 -72 40 -120t112 -48q92 0 149 61.5t57 151.5q0 74 -43 119t-116 45q-84 0 -141.5 -63.5t-57.5 -145.5z" />
<glyph unicode="A" d="M-8 0l217 1458h383l174 -1458h-301l-33 397h-137l-45 -397h-258zM319 606h95l-39 598h-8z" />
<glyph unicode="B" d="M39 0v1458h340q150 0 237 -63q102 -74 103 -232v-110q0 -117 -39 -176q-47 -72 -178 -99q117 -16 167 -85.5t50 -237.5v-127q0 -182 -86 -258q-78 -70 -254 -70h-340zM328 209h34q39 0 53.5 14.5t14.5 55.5v323q0 41 -14.5 55.5t-53.5 14.5h-34v-463zM328 852h34 q37 0 52.5 20.5t15.5 71.5v213q0 53 -15.5 72.5t-52.5 19.5h-34v-397z" />
<glyph unicode="C" d="M39 238v983q0 135 102 204q92 61 238 62q150 0 237 -60q102 -68 103 -206v-277h-289v230q0 41 -10 68.5t-41 27.5t-41 -28t-10 -68v-889q0 -41 10 -69t41 -28t41 28t10 69v288h289v-335q0 -135 -103 -205q-92 -61 -237 -62q-150 0 -238 60q-102 68 -102 207z" />
<glyph unicode="D" d="M39 0v1458h340q150 0 237 -59q102 -68 103 -207v-926q0 -135 -103 -205q-92 -61 -237 -61h-340zM328 209h51q31 0 41 27.5t10 68.5v848q0 41 -10 68.5t-41 27.5h-51v-1040z" />
<glyph unicode="E" horiz-adv-x="606" d="M47 0v1458h541v-209h-252v-334h242v-208h-242v-498h252v-209h-541z" />
<glyph unicode="F" horiz-adv-x="606" d="M47 0v1458h541v-209h-252v-334h242v-208h-242v-707h-289z" />
<glyph unicode="G" d="M39 238v983q0 135 102 204q92 61 238 62q150 0 237 -60q102 -68 103 -206v-277h-289v230q0 41 -10 68.5t-41 27.5t-41 -28t-10 -68v-889q0 -41 10 -69t41 -28t41 28t10 69v250h-72v208h361v-743h-139l-21 104q-31 -63 -95.5 -98t-133.5 -35q-139 0 -215 72t-76 195z" />
<glyph unicode="H" d="M39 0v1458h289v-528h102v528h289v-1458h-289v696h-102v-696h-289z" />
<glyph unicode="I" horiz-adv-x="417" d="M63 0v1458h289v-1458h-289z" />
<glyph unicode="J" d="M39 291v282h289v-260q0 -61 10 -93t41 -32q37 0 47 54q4 20 4 71v1145h289v-1167q0 -319 -340 -320q-172 0 -256 77t-84 243z" />
<glyph unicode="K" d="M27 0v1458h288v-645l150 645h285l-177 -604l179 -854h-287l-146 764l-4 -764h-288z" />
<glyph unicode="L" horiz-adv-x="606" d="M39 0v1458h289v-1249h256v-209h-545z" />
<glyph unicode="M" horiz-adv-x="1214" d="M47 0v1458h445l124 -979l148 979h403v-1458h-260v1069l-4 4l-176 -1073h-248l-168 1053l-4 -1053h-260z" />
<glyph unicode="N" horiz-adv-x="872" d="M47 0v1458h402l147 -946l4 946h225v-1458h-344l-205 1147l-4 -4v-1143h-225z" />
<glyph unicode="O" d="M39 238v983q0 135 102 204q92 61 238 62q150 0 237 -60q102 -68 103 -206v-983q0 -135 -103 -205q-92 -61 -237 -62q-150 0 -238 60q-102 68 -102 207zM328 285q0 -41 10 -69t41 -28t41 28t10 69v889q0 41 -10 68.5t-41 27.5t-41 -28t-10 -68v-889z" />
<glyph unicode="P" d="M39 0v1458h340q150 0 237 -63q102 -74 103 -232v-299q0 -158 -103 -231q-88 -63 -237 -64h-51v-569h-289zM328 778h34q37 0 52.5 20.5t15.5 71.5v287q0 53 -15.5 72.5t-52.5 19.5h-34v-471z" />
<glyph unicode="Q" d="M39 238v983q0 135 102 204q92 61 238 62q150 0 237 -60q102 -68 103 -206v-983q0 -90 -45 -149.5t-121 -88.5q2 -27 24.5 -36t63.5 -9h78v-217h-105q-98 0 -146 64.5t-48 172.5q-12 -4 -41 -4q-150 0 -238 60q-102 68 -102 207zM328 285q0 -41 10 -69t41 -28t41 28t10 69 v889q0 41 -10 68.5t-41 27.5t-41 -28t-10 -68v-889z" />
<glyph unicode="R" d="M39 0v1458h340q150 0 237 -63q102 -74 103 -232v-129q0 -98 -45 -160q-57 -78 -178 -77q131 -2 180 -64q43 -53 43 -186v-289q0 -92 14 -160q20 -70 29 -98h-293q-18 35 -28.5 79t-10.5 109v332q0 86 -12 115q-20 47 -90 47v-682h-289zM328 850h34q37 0 52.5 20.5 t15.5 71.5v215q0 53 -15.5 72.5t-52.5 19.5h-34v-399z" />
<glyph unicode="S" d="M35 1038v183q0 135 102 204q92 61 238 62q150 0 237 -60q102 -68 103 -206v-283h-289v236q0 41 -10 68.5t-41 27.5t-41 -28t-10 -68q0 -166 102 -271q96 -90 195 -180q104 -131 104 -358v-127q0 -135 -102 -205q-92 -61 -238 -62q-150 0 -238 60q-102 68 -102 207v335 h289v-288q0 -41 10 -69t41 -28t41 28t10 69q0 199 -102 327q-98 92 -195 185q-104 104 -104 241z" />
<glyph unicode="T" horiz-adv-x="681" d="M2 1249v209h678v-209h-195v-1249h-288v1249h-195z" />
<glyph unicode="U" d="M39 238v1220h289v-1173q0 -41 10 -69t41 -28t41 28t10 69v1173h289v-1220q0 -135 -103 -205q-92 -61 -237 -62q-150 0 -238 60q-102 68 -102 207z" />
<glyph unicode="V" d="M4 1458h299l80 -1192l111 1192h260l-195 -1458h-383z" />
<glyph unicode="W" horiz-adv-x="1214" d="M-2 1458h289l59 -956l109 956h313l82 -956l78 956h289l-203 -1458h-332l-98 1018l-115 -1018h-324z" />
<glyph unicode="X" d="M-10 0l174 754l-162 704h301l92 -526l97 526h262l-160 -663l172 -795h-307l-94 623l-105 -623h-270z" />
<glyph unicode="Y" d="M4 1458h303l92 -579l95 579h260l-222 -727v-731h-288v731z" />
<glyph unicode="Z" horiz-adv-x="606" d="M8 1249v209h576v-209l-277 -1040h289v-209h-576v209l263 1040h-275z" />
<glyph unicode="[" horiz-adv-x="606" d="M78 -195v1682h440v-205h-194v-1272h204v-205h-450z" />
<glyph unicode="\" horiz-adv-x="569" d="M-111 1487h164l627 -1516h-162z" />
<glyph unicode="]" horiz-adv-x="606" d="M78 10h205v1272h-195v205h440v-1682h-450v205z" />
<glyph unicode="^" horiz-adv-x="1138" d="M104 711l357 747h217l356 -747h-239l-226 508l-227 -508h-238z" />
<glyph unicode="_" horiz-adv-x="1024" d="M0 -61h1024v-140h-1024v140z" />
<glyph unicode="`" horiz-adv-x="342" d="M-92 1546h198l195 -276h-113z" />
<glyph unicode="a" horiz-adv-x="681" d="M35 197v252q0 152 176 233.5t176 202.5v47q0 25 -11 43t-36 18t-35 -18.5t-10 -42.5v-168h-260v158q0 127 86 195.5t219 68.5q131 0 219 -68.5t88 -195.5v-684q0 -49 4 -91q14 -139 15 -147h-265l-14 119q-55 -133 -178 -133q-94 0 -134 53.5t-40 157.5zM295 240 q0 -27 10 -44.5t35 -17.5t36 17.5t11 44.5v338l-47 -33q-31 -27 -38 -40t-7 -52v-213z" />
<glyph unicode="b" horiz-adv-x="681" d="M35 0v1458h260v-389q20 51 66.5 84t103.5 33q111 0 151 -78q31 -57 31 -178v-682q0 -156 -48 -209t-134 -53q-59 0 -103.5 36.5t-62.5 100.5l-4 -123h-260zM295 260q0 -27 10 -44t35 -17t36 17t11 44v651q0 25 -11 43.5t-36 18.5t-35 -18.5t-10 -43.5v-651z" />
<glyph unicode="c" horiz-adv-x="681" d="M35 250v672q0 127 86 195.5t219 68.5q131 0 219 -68.5t88 -195.5v-158h-260v168q0 25 -11 43t-36 18t-35 -18.5t-10 -42.5v-692q0 -27 10 -44.5t35 -17.5t36 17.5t11 44.5v225h260v-215q0 -127 -92 -199q-84 -66 -215 -65q-133 0 -215 65q-90 72 -90 199z" />
<glyph unicode="d" horiz-adv-x="681" d="M35 248v682q0 154 51 209q43 47 131 47q59 0 103.5 -32t62.5 -85l4 389h260v-1458h-260v123q-20 -59 -66.5 -98t-103.5 -39q-109 0 -151 82q-31 59 -31 180zM295 260q0 -27 10 -44t35 -17t36 17t11 44v651q0 25 -11 43.5t-36 18.5t-35 -18.5t-10 -43.5v-651z" />
<glyph unicode="e" horiz-adv-x="681" d="M35 250v672q0 127 86 195.5t219 68.5q131 0 219 -68.5t88 -195.5v-377h-352v-305q0 -27 10 -44.5t35 -17.5t36 17.5t11 44.5v225h260v-215q0 -127 -92 -199q-84 -66 -215 -65q-133 0 -215 65q-90 72 -90 199zM295 721h92v211q0 25 -11 43t-36 18t-35 -18.5t-10 -42.5 v-211z" />
<glyph unicode="f" horiz-adv-x="417" d="M12 979v192h62v76q0 121 51 166t180 45h109v-192h-19q-39 0 -50 -15.5t-11 -56.5v-23h80v-192h-80v-979h-260v979h-62z" />
<glyph unicode="g" horiz-adv-x="681" d="M35 2v88h260v-110q0 -27 10 -44.5t35 -17.5t36 17.5t11 44.5v262h-10q-23 -47 -73 -80t-105 -33q-84 0 -124 53.5t-40 145.5v649q0 92 39 150.5t125 58.5q55 0 104 -36t74 -87h10v108h260v-1169q0 -139 -84 -205q-76 -59 -221 -59t-221 59q-86 66 -86 205zM295 395 q0 -27 10 -44t35 -17t36 17.5t11 43.5v516q0 25 -11 43.5t-36 18.5t-35 -18.5t-10 -43.5v-516z" />
<glyph unicode="h" horiz-adv-x="681" d="M35 0v1458h260v-389h10q8 51 59.5 84t110.5 33q113 0 148 -76q25 -51 24 -180v-930h-260v911q0 25 -11 43.5t-36 18.5t-35 -18.5t-10 -43.5v-911h-260z" />
<glyph unicode="i" horiz-adv-x="342" d="M41 0v1171h260v-1171h-260zM41 1237v221h260v-221h-260z" />
<glyph unicode="j" horiz-adv-x="342" d="M-57 -76h45q41 0 52 16.5t11 61.5v1169h260v-1243q0 -121 -78 -161q-55 -29 -192 -29h-98v186zM51 1237v221h260v-221h-260z" />
<glyph unicode="k" horiz-adv-x="681" d="M39 0v1458h260v-813l109 526h270l-127 -503l123 -668h-266l-105 616l-4 -616h-260z" />
<glyph unicode="l" horiz-adv-x="342" d="M41 0v1458h260v-1458h-260z" />
<glyph unicode="m" horiz-adv-x="1024" d="M29 0v1171h260v-104q39 68 65 88q39 31 113 31q72 0 108.5 -25.5t59.5 -95.5q31 53 47 72q43 49 131 49q109 0 152 -76q29 -51 28 -141v-969h-260v911q0 25 -11 43.5t-36 18.5t-35 -18.5t-10 -43.5v-911h-260v911q0 25 -11.5 43.5t-35.5 18.5q-25 0 -35 -18.5t-10 -43.5 v-911h-260z" />
<glyph unicode="n" horiz-adv-x="681" d="M35 0v1171h260v-102q14 51 68.5 84t111.5 33q113 0 148 -76q25 -51 24 -180v-930h-260v911q0 25 -11 43.5t-36 18.5t-35 -18.5t-10 -43.5v-911h-260z" />
<glyph unicode="o" horiz-adv-x="681" d="M35 250v672q0 127 86 195.5t219 68.5q131 0 219 -68.5t88 -195.5v-672q0 -127 -92 -199q-84 -66 -215 -65q-133 0 -215 65q-90 72 -90 199zM295 240q0 -27 10 -44.5t35 -17.5t36 17.5t11 44.5v692q0 25 -11 43t-36 18t-35 -18.5t-10 -42.5v-692z" />
<glyph unicode="p" horiz-adv-x="681" d="M39 -262v1433h260v-122q14 61 59 99t105 38q109 0 153 -82q35 -63 35 -180v-682q0 -117 -33 -176q-45 -80 -155 -80q-57 0 -102.5 32.5t-57.5 83.5l-4 -364h-260zM299 260q0 -27 10 -44t35 -17t36 17t11 44v651q0 25 -11 43.5t-36 18.5t-35 -18.5t-10 -43.5v-651z" />
<glyph unicode="q" horiz-adv-x="681" d="M35 242v682q0 156 51 213q45 49 131 49q59 0 103.5 -37t62.5 -100l4 122h260v-1433h-260v364q-20 -51 -66.5 -83.5t-103.5 -32.5q-111 0 -151 77q-31 58 -31 179zM295 260q0 -27 10 -44t35 -17t36 17t11 44v651q0 25 -11 43.5t-36 18.5t-35 -18.5t-10 -43.5v-651z" />
<glyph unicode="r" horiz-adv-x="681" d="M35 0v1171h260v-100q35 57 79 86t111 29q92 0 127 -50.5t35 -154.5v-440h-260v370q0 25 -11 43.5t-36 18.5t-35 -18.5t-10 -43.5v-911h-260z" />
<glyph unicode="s" horiz-adv-x="681" d="M29 250v194h260v-204q0 -25 11 -43.5t40 -18.5t41 18.5t12 43.5v98q0 92 -182 206.5t-182 278.5v99q0 127 90 195.5t221 68.5q135 0 224 -68.5t89 -195.5v-158h-260v168q0 27 -12 44t-41 17t-40 -16t-11 -45v-68q0 -80 94 -145q164 -113 176 -125q94 -94 94 -250v-94 q0 -127 -92 -199q-84 -66 -221 -65q-129 0 -215 65q-96 74 -96 199z" />
<glyph unicode="t" horiz-adv-x="417" d="M6 979v192h70v213h260v-213h72v-192h-72v-707q0 -37 8 -58t37 -21h31v-193h-117q-135 0 -177 49t-42 189v741h-70z" />
<glyph unicode="u" horiz-adv-x="681" d="M35 195v976h260v-911q0 -27 10 -44t35 -17t36 17t11 44v911h260v-1171h-260v131q-2 -57 -55 -101t-115 -44q-96 0 -139 55.5t-43 153.5z" />
<glyph unicode="v" horiz-adv-x="681" d="M10 1171h269l67 -895l86 895h238l-170 -1171h-318z" />
<glyph unicode="w" horiz-adv-x="1099" d="M6 1171h266l68 -905l88 905h270l72 -909l80 909h246l-174 -1171h-295l-66 852l-94 -852h-295z" />
<glyph unicode="x" horiz-adv-x="681" d="M2 0l145 616l-133 555h273l69 -446l74 446h240l-129 -563l139 -608h-274l-74 473l-88 -473h-242z" />
<glyph unicode="y" horiz-adv-x="681" d="M8 1171h260l72 -895l90 895h242l-185 -1183q-25 -158 -80 -204t-243 -46h-131v192h82q74 0 73 54l-2 34z" />
<glyph unicode="z" horiz-adv-x="530" d="M18 0v193l213 786h-206v192h487v-192l-227 -786h227v-193h-494z" />
<glyph unicode="{" horiz-adv-x="681" d="M78 586v174q78 20 84 22q41 23 41 84v379q0 115 102 185q84 57 170 57h129v-158h-37q-72 0 -100 -39q-18 -27 -18 -76v-370q0 -90 -84 -135q-59 -33 -138 -33q106 -18 138 -35q84 -45 84 -154v-409q0 -53 16 -76q27 -39 102 -39h37v-158h-129q-86 0 -168 56 q-104 72 -104 186v432q0 59 -41 82q-12 7 -84 25z" />
<glyph unicode="|" horiz-adv-x="454" d="M109 0v1458h237v-1458h-237z" />
<glyph unicode="}" horiz-adv-x="681" d="M78 -51h37q72 0 100 39q18 27 18 75v410q0 109 84 152q43 23 138 30q-84 6 -138 37q-84 47 -84 137v371q0 53 -16 76q-27 39 -102 39h-37v158h129q86 0 168 -56q104 -72 104 -186v-379q0 -59 41 -82q12 -6 84 -25v-174q-78 -20 -84 -22q-41 -23 -41 -84v-432 q0 -115 -102 -185q-84 -57 -170 -57h-129v158z" />
<glyph unicode="~" horiz-adv-x="1138" d="M96 606q41 80 92 121q68 55 164 55q41 0 93.5 -14t142.5 -55q70 -31 119 -50.5t81 -19.5q53 0 103 47q33 31 78 101l73 -197q-63 -88 -102 -121q-68 -55 -154 -55q-55 0 -110 20q-27 10 -96.5 46t-110.5 51q-63 23 -127 22q-59 0 -106 -47q-37 -37 -66 -100z" />
<glyph horiz-adv-x="915" d="M2 1249v209h678v-209h-195v-344q72 88 191 88q86 0 139 -51q61 -59 62 -174v-567q0 -115 -57.5 -172.5t-143.5 -57.5h-139v217q33 0 42 19.5t9 77.5v387q0 51 -41 51q-12 0 -25 -8q-25 -16 -37 -43v-672h-288v1249h-195z" />
<glyph unicode="&#x402;" horiz-adv-x="915" d="M2 1249v209h678v-209h-195v-344q72 88 191 88q86 0 139 -51q61 -59 62 -174v-567q0 -115 -57.5 -172.5t-143.5 -57.5h-139v217q33 0 42 19.5t9 77.5v387q0 51 -41 51q-12 0 -25 -8q-25 -16 -37 -43v-672h-288v1249h-195z" />
<glyph horiz-adv-x="606" d="M39 0v1458h545v-209h-256v-1249h-289zM152 1544l194 277h199l-281 -277h-112z" />
<glyph unicode="&#x403;" horiz-adv-x="606" d="M39 0v1458h545v-209h-256v-1249h-289zM152 1544l194 277h199l-281 -277h-112z" />
<glyph d="M27 0v1458h288v-645l150 645h285l-177 -604l179 -854h-287l-146 764l-4 -764h-288zM203 1544l194 277h199l-281 -277h-112z" />
<glyph unicode="&#x40c;" d="M27 0v1458h288v-645l150 645h285l-177 -604l179 -854h-287l-146 764l-4 -764h-288zM203 1544l194 277h199l-281 -277h-112z" />
<glyph horiz-adv-x="915" d="M2 1249v209h678v-209h-195v-344q72 88 191 88q86 0 139 -51q61 -59 62 -174v-768h-289v672q0 51 -41 51q-12 0 -25 -8q-25 -16 -37 -43v-672h-288v1249h-195z" />
<glyph unicode="&#x40b;" horiz-adv-x="915" d="M2 1249v209h678v-209h-195v-344q72 88 191 88q86 0 139 -51q61 -59 62 -174v-768h-289v672q0 51 -41 51q-12 0 -25 -8q-25 -16 -37 -43v-672h-288v1249h-195z" />
<glyph d="M39 0v1458h289v-1225h102v1225h289v-1458h-209v-221h-260v221h-211z" />
<glyph unicode="&#x40f;" d="M39 0v1458h289v-1225h102v1225h289v-1458h-209v-221h-260v221h-211z" />
<glyph horiz-adv-x="720" d="M6 979v192h70v287h260v-287h143v-192h-143v-182h10q8 51 59.5 83.5t110.5 32.5q113 0 148 -75q25 -51 24 -181v-655q0 -139 -84 -205q-76 -59 -221 -59v180q25 0 35 18.5t10 43.5v659q0 25 -11 43t-36 18t-35 -18t-10 -43v-639h-260v979h-70z" />
<glyph unicode="&#x452;" horiz-adv-x="720" d="M6 979v192h70v287h260v-287h143v-192h-143v-182h10q8 51 59.5 83.5t110.5 32.5q113 0 148 -75q25 -51 24 -181v-655q0 -139 -84 -205q-76 -59 -221 -59v180q25 0 35 18.5t10 43.5v659q0 25 -11 43t-36 18t-35 -18t-10 -43v-639h-260v979h-70z" />
<glyph horiz-adv-x="681" d="M39 0v1171h260v-526l109 526h270l-127 -503l123 -668h-266l-105 616l-4 -616h-260zM186 1270l195 276h199l-281 -276h-113z" />
<glyph unicode="&#x45c;" horiz-adv-x="681" d="M39 0v1171h260v-526l109 526h270l-127 -503l123 -668h-266l-105 616l-4 -616h-260zM186 1270l195 276h199l-281 -276h-113z" />
<glyph horiz-adv-x="720" d="M6 979v192h70v287h260v-287h143v-192h-143v-182h10q8 51 59.5 83.5t110.5 32.5q113 0 148 -75q25 -51 24 -181v-657h-260v639q0 25 -11 43t-36 18t-35 -18t-10 -43v-639h-260v979h-70z" />
<glyph unicode="&#x45b;" horiz-adv-x="720" d="M6 979v192h70v287h260v-287h143v-192h-143v-182h10q8 51 59.5 83.5t110.5 32.5q113 0 148 -75q25 -51 24 -181v-657h-260v639q0 25 -11 43t-36 18t-35 -18t-10 -43v-639h-260v979h-70z" />
<glyph unicode="&#xa1;" d="M-8 1458h303l96 -772l115 772h260l-297 -1458h-248l49 236zM88 1827h88q10 -76 74 -107q47 -23 135 -22q76 0 123 26q57 33 74 99h86q0 -129 -79 -194.5t-214 -65.5q-129 0 -208 68.5t-79 195.5z" />
<glyph unicode="&#x40e;" d="M-8 1458h303l96 -772l115 772h260l-297 -1458h-248l49 236zM88 1827h88q10 -76 74 -107q47 -23 135 -22q76 0 123 26q57 33 74 99h86q0 -129 -79 -194.5t-214 -65.5q-129 0 -208 68.5t-79 195.5z" />
<glyph unicode="&#xa2;" horiz-adv-x="681" d="M8 1171h260l72 -895l90 895h242l-185 -1183q-25 -158 -80 -204t-243 -46h-131v192h82q74 0 73 54l-2 34zM51 1540h88q10 -76 74 -106q47 -23 135 -23q76 0 123 27q57 33 74 98h86q0 -129 -79 -194.5t-214 -65.5q-129 0 -208 68.5t-79 195.5z" />
<glyph unicode="&#x45e;" horiz-adv-x="681" d="M8 1171h260l72 -895l90 895h242l-185 -1183q-25 -158 -80 -204t-243 -46h-131v192h82q74 0 73 54l-2 34zM51 1540h88q10 -76 74 -106q47 -23 135 -23q76 0 123 27q57 33 74 98h86q0 -129 -79 -194.5t-214 -65.5q-129 0 -208 68.5t-79 195.5z" />
<glyph unicode="&#xa3;" d="M39 291v282h289v-260q0 -61 10 -93t41 -32q37 0 47 54q4 20 4 71v1145h289v-1167q0 -319 -340 -320q-172 0 -256 77t-84 243z" />
<glyph unicode="&#x408;" d="M39 291v282h289v-260q0 -61 10 -93t41 -32q37 0 47 54q4 20 4 71v1145h289v-1167q0 -319 -340 -320q-172 0 -256 77t-84 243z" />
<glyph unicode="&#xa4;" d="M8 319l84 82q-66 76 -65 199q0 66 15 117t50 84l-84 82l90 90l82 -82q74 63 203 63q57 0 108.5 -15t81.5 -44l82 82l95 -96l-78 -80q29 -31 45 -84t16 -115q0 -57 -16.5 -112.5t-46.5 -90.5l80 -80l-86 -86l-82 82q-33 -33 -85.5 -51t-113.5 -18q-131 0 -205 67l-82 -82z M199 600q0 -82 51 -139.5t133 -57.5q78 0 128 58.5t50 140.5q0 80 -49 137.5t-129 57.5t-132 -56.5t-52 -140.5z" />
<glyph unicode="&#xa5;" horiz-adv-x="606" d="M39 0v1458h285v246h260v-455h-256v-1249h-289z" />
<glyph unicode="&#x490;" horiz-adv-x="606" d="M39 0v1458h285v246h260v-455h-256v-1249h-289z" />
<glyph unicode="&#xa6;" horiz-adv-x="454" d="M109 0v541h237v-541h-237zM109 918v540h237v-540h-237z" />
<glyph unicode="&#xa7;" horiz-adv-x="872" d="M49 733q0 82 36 150.5t103 124.5q-35 33 -50 86t-15 110q0 129 98 206t234 77q141 0 232 -79t91 -218h-239q0 43 -27 74q-23 31 -72 30q-76 0 -75 -84q0 -59 116 -143q195 -141 221 -168q119 -117 119 -252q0 -164 -139 -254q47 -39 66.5 -96t19.5 -125 q0 -139 -97.5 -219t-240.5 -80q-160 0 -252 84t-92 248h242q0 -57 16 -90q25 -49 82 -49q45 0 72.5 21.5t27.5 68.5q0 72 -123 159q-209 152 -229 170q-125 117 -125 248zM291 774q0 -51 102 -133q74 -59 148 -117q14 8 26.5 42t12.5 52q0 51 -99 130l-143 110 q-47 -25 -47 -84z" />
<glyph unicode="&#xa8;" horiz-adv-x="606" d="M39 1569v223h192v-223h-192zM47 0v1458h541v-209h-252v-334h242v-208h-242v-498h252v-209h-541zM377 1569v223h192v-223h-192z" />
<glyph unicode="&#x401;" horiz-adv-x="606" d="M39 1569v223h192v-223h-192zM47 0v1458h541v-209h-252v-334h242v-208h-242v-498h252v-209h-541zM377 1569v223h192v-223h-192z" />
<glyph unicode="&#xa9;" horiz-adv-x="1638" d="M33 729q0 346 239 559q223 199 547 199q319 0 545 -199q242 -213 242 -559t-240 -559q-223 -199 -547 -199t-547 199q-239 213 -239 559zM283 729q0 -250 153.5 -409.5t382.5 -159.5q223 0 380 160.5t157 408.5q0 250 -156 409.5t-381 159.5q-227 0 -381.5 -158.5 t-154.5 -410.5zM432 735q0 193 112.5 316t301.5 123q141 0 238.5 -81t119.5 -231h-184q-12 66 -58.5 94.5t-115.5 28.5q-90 0 -139.5 -65.5t-49.5 -180.5q0 -109 53.5 -179.5t139.5 -70.5q76 0 123 31t47 98h192q-20 -152 -121.5 -234.5t-240.5 -82.5q-186 0 -302 124 t-116 310z" />
<glyph unicode="&#xaa;" d="M39 238v983q0 135 102 204q92 61 238 62q150 0 237 -60q102 -68 103 -206v-277h-289v230q0 41 -10 68.5t-41 27.5t-41 -28t-10 -68v-306h184v-217h-184v-366q0 -41 10 -69t41 -28t41 28t10 69v288h289v-335q0 -135 -103 -205q-92 -61 -237 -62q-150 0 -238 60 q-102 68 -102 207z" />
<glyph unicode="&#x404;" d="M39 238v983q0 135 102 204q92 61 238 62q150 0 237 -60q102 -68 103 -206v-277h-289v230q0 41 -10 68.5t-41 27.5t-41 -28t-10 -68v-306h184v-217h-184v-366q0 -41 10 -69t41 -28t41 28t10 69v288h289v-335q0 -135 -103 -205q-92 -61 -237 -62q-150 0 -238 60 q-102 68 -102 207z" />
<glyph unicode="&#xab;" horiz-adv-x="681" d="M25 498v274l288 324v-277l-178 -184l178 -184v-277zM358 498v274l289 324v-277l-178 -184l178 -184v-277z" />
<glyph unicode="&#xac;" horiz-adv-x="1138" d="M68 705v237h1003v-637h-237v400h-766z" />
<glyph unicode="&#xad;" horiz-adv-x="342" d="M-98 1337v133h549v-133h-549z" />
<glyph unicode="&#xae;" horiz-adv-x="1638" d="M33 729q0 346 239 559q223 199 547 199q319 0 545 -199q242 -213 242 -559t-240 -559q-223 -199 -547 -199t-547 199q-239 213 -239 559zM283 729q0 -250 153.5 -409.5t382.5 -159.5q223 0 380 160.5t157 408.5q0 250 -156 409.5t-381 159.5q-227 0 -381.5 -158.5 t-154.5 -410.5zM510 319v824h307q174 0 254 -51q92 -59 92 -201q0 -111 -60.5 -163t-170.5 -52l209 -357h-189l-186 343h-68v-343h-188zM698 809h156q59 0 86 20.5t27 81.5q0 53 -44 68.5t-110 15.5h-115v-186z" />
<glyph unicode="&#xaf;" horiz-adv-x="417" d="M-55 1569v223h192v-223h-192zM63 0v1458h289v-1458h-289zM283 1569v223h192v-223h-192z" />
<glyph unicode="&#x407;" horiz-adv-x="417" d="M-55 1569v223h192v-223h-192zM63 0v1458h289v-1458h-289zM283 1569v223h192v-223h-192z" />
<glyph unicode="&#xb0;" horiz-adv-x="819" d="M117 1165q0 123 85 208t208 85t207.5 -85t84.5 -208t-85 -208t-207 -85q-123 0 -208 85t-85 208zM248 1165q0 -80 42 -125t120 -45t119.5 46t41.5 124q0 80 -42 125t-119 45q-78 0 -120 -46t-42 -124z" />
<glyph unicode="&#xb1;" horiz-adv-x="1138" d="M68 82v237h1003v-237h-1003zM68 621v237h383v232h237v-232h383v-237h-383v-240h-237v240h-383z" />
<glyph unicode="&#xb2;" horiz-adv-x="417" d="M63 0v1458h289v-1458h-289z" />
<glyph unicode="&#x406;" horiz-adv-x="417" d="M63 0v1458h289v-1458h-289z" />
<glyph unicode="&#xb3;" horiz-adv-x="342" d="M41 0v1171h260v-1171h-260zM41 1237v221h260v-221h-260z" />
<glyph unicode="&#x456;" horiz-adv-x="342" d="M41 0v1171h260v-1171h-260zM41 1237v221h260v-221h-260z" />
<glyph unicode="&#xb4;" horiz-adv-x="530" d="M35 0v1171h258v261h233v-447h-231v-985h-260z" />
<glyph unicode="&#x491;" horiz-adv-x="530" d="M35 0v1171h258v261h233v-447h-231v-985h-260z" />
<glyph unicode="&#xb5;" horiz-adv-x="681" d="M35 -262v1433h260v-911q0 -27 10 -44t35 -17t36 17t11 44v911h260v-1171h-256v131q-6 -18 -14 -34.5t-21 -33.5q-20 -33 -61 -55v-270h-260z" />
<glyph unicode="&#xb6;" horiz-adv-x="1269" d="M154 1094q0 201 135 292q106 72 286 72h662v-188h-121v-1637h-246v1637h-96v-1637h-246v1110q-166 0 -270 94.5t-104 256.5z" />
<glyph unicode="&#xb7;" horiz-adv-x="378" d="M16 584q0 72 54.5 120t126.5 48q68 0 115.5 -50.5t47.5 -115.5q0 -74 -49 -125t-123 -51t-123 49t-49 125z" />
<glyph unicode="&#x2219;" horiz-adv-x="378" d="M16 584q0 72 54.5 120t126.5 48q68 0 115.5 -50.5t47.5 -115.5q0 -74 -49 -125t-123 -51t-123 49t-49 125z" />
<glyph unicode="&#xb8;" horiz-adv-x="681" d="M35 250v672q0 127 86 195.5t219 68.5q131 0 219 -68.5t88 -195.5v-377h-352v-305q0 -27 10 -44.5t35 -17.5t36 17.5t11 44.5v225h260v-215q0 -127 -92 -199q-84 -66 -215 -65q-133 0 -215 65q-90 72 -90 199zM76 1294v224h192v-224h-192zM295 721h92v211q0 25 -11 43 t-36 18t-35 -18.5t-10 -42.5v-211zM414 1294v224h192v-224h-192z" />
<glyph unicode="&#x451;" horiz-adv-x="681" d="M35 250v672q0 127 86 195.5t219 68.5q131 0 219 -68.5t88 -195.5v-377h-352v-305q0 -27 10 -44.5t35 -17.5t36 17.5t11 44.5v225h260v-215q0 -127 -92 -199q-84 -66 -215 -65q-133 0 -215 65q-90 72 -90 199zM76 1294v224h192v-224h-192zM295 721h92v211q0 25 -11 43 t-36 18t-35 -18.5t-10 -42.5v-211zM414 1294v224h192v-224h-192z" />
<glyph unicode="&#xb9;" horiz-adv-x="1259" d="M47 0v1458h402l147 -946l4 946h225v-1458h-344l-205 1147l-4 -4v-1143h-225zM893 545v160h346v-160h-346zM893 926v403q0 74 52 116t120 42q66 0 120 -42t54 -116v-403q0 -74 -52 -116t-122 -42q-68 0 -117 39q-55 45 -55 119zM1036 920q0 -37 29 -37q31 0 31 37v415 q0 37 -31 37q-29 0 -29 -37v-415z" />
<glyph unicode="&#x2116;" horiz-adv-x="1259" d="M47 0v1458h402l147 -946l4 946h225v-1458h-344l-205 1147l-4 -4v-1143h-225zM893 545v160h346v-160h-346zM893 926v403q0 74 52 116t120 42q66 0 120 -42t54 -116v-403q0 -74 -52 -116t-122 -42q-68 0 -117 39q-55 45 -55 119zM1036 920q0 -37 29 -37q31 0 31 37v415 q0 37 -31 37q-29 0 -29 -37v-415z" />
<glyph unicode="&#xba;" horiz-adv-x="681" d="M35 250v672q0 127 86 195.5t219 68.5q131 0 219 -68.5t88 -195.5v-158h-260v168q0 25 -11 43t-36 18t-35 -18.5t-10 -42.5v-223h166v-195h-166v-274q0 -27 10 -44.5t35 -17.5t36 17.5t11 44.5v225h260v-215q0 -127 -92 -199q-84 -66 -215 -65q-133 0 -215 65 q-90 72 -90 199z" />
<glyph unicode="&#x454;" horiz-adv-x="681" d="M35 250v672q0 127 86 195.5t219 68.5q131 0 219 -68.5t88 -195.5v-158h-260v168q0 25 -11 43t-36 18t-35 -18.5t-10 -42.5v-223h166v-195h-166v-274q0 -27 10 -44.5t35 -17.5t36 17.5t11 44.5v225h260v-215q0 -127 -92 -199q-84 -66 -215 -65q-133 0 -215 65 q-90 72 -90 199z" />
<glyph unicode="&#xbb;" horiz-adv-x="681" d="M35 174v277l178 184l-178 184v277l289 -324v-274zM369 174v277l178 184l-178 184v277l288 -324v-274z" />
<glyph unicode="&#xbc;" horiz-adv-x="342" d="M-57 -76h45q41 0 52 16.5t11 61.5v1169h260v-1243q0 -121 -78 -161q-55 -29 -192 -29h-98v186zM51 1237v221h260v-221h-260z" />
<glyph unicode="&#x458;" horiz-adv-x="342" d="M-57 -76h45q41 0 52 16.5t11 61.5v1169h260v-1243q0 -121 -78 -161q-55 -29 -192 -29h-98v186zM51 1237v221h260v-221h-260z" />
<glyph unicode="&#xbd;" d="M35 1038v183q0 135 102 204q92 61 238 62q150 0 237 -60q102 -68 103 -206v-283h-289v236q0 41 -10 68.5t-41 27.5t-41 -28t-10 -68q0 -166 102 -271q96 -90 195 -180q104 -131 104 -358v-127q0 -135 -102 -205q-92 -61 -238 -62q-150 0 -238 60q-102 68 -102 207v335 h289v-288q0 -41 10 -69t41 -28t41 28t10 69q0 199 -102 327q-98 92 -195 185q-104 104 -104 241z" />
<glyph unicode="&#x405;" d="M35 1038v183q0 135 102 204q92 61 238 62q150 0 237 -60q102 -68 103 -206v-283h-289v236q0 41 -10 68.5t-41 27.5t-41 -28t-10 -68q0 -166 102 -271q96 -90 195 -180q104 -131 104 -358v-127q0 -135 -102 -205q-92 -61 -238 -62q-150 0 -238 60q-102 68 -102 207v335 h289v-288q0 -41 10 -69t41 -28t41 28t10 69q0 199 -102 327q-98 92 -195 185q-104 104 -104 241z" />
<glyph unicode="&#xbe;" horiz-adv-x="681" d="M29 250v194h260v-204q0 -25 11 -43.5t40 -18.5t41 18.5t12 43.5v98q0 92 -182 206.5t-182 278.5v99q0 127 90 195.5t221 68.5q135 0 224 -68.5t89 -195.5v-158h-260v168q0 27 -12 44t-41 17t-40 -16t-11 -45v-68q0 -80 94 -145q164 -113 176 -125q94 -94 94 -250v-94 q0 -127 -92 -199q-84 -66 -221 -65q-129 0 -215 65q-96 74 -96 199z" />
<glyph unicode="&#x455;" horiz-adv-x="681" d="M29 250v194h260v-204q0 -25 11 -43.5t40 -18.5t41 18.5t12 43.5v98q0 92 -182 206.5t-182 278.5v99q0 127 90 195.5t221 68.5q135 0 224 -68.5t89 -195.5v-158h-260v168q0 27 -12 44t-41 17t-40 -16t-11 -45v-68q0 -80 94 -145q164 -113 176 -125q94 -94 94 -250v-94 q0 -127 -92 -199q-84 -66 -221 -65q-129 0 -215 65q-96 74 -96 199z" />
<glyph unicode="&#xbf;" horiz-adv-x="342" d="M-94 1294v224h192v-224h-192zM41 0v1171h260v-1171h-260zM244 1294v224h192v-224h-192z" />
<glyph unicode="&#x457;" horiz-adv-x="342" d="M-94 1294v224h192v-224h-192zM41 0v1171h260v-1171h-260zM244 1294v224h192v-224h-192z" />
<glyph unicode="&#xc0;" d="M-8 0l217 1458h383l174 -1458h-301l-33 397h-137l-45 -397h-258zM319 606h95l-39 598h-8z" />
<glyph unicode="&#x410;" d="M-8 0l217 1458h383l174 -1458h-301l-33 397h-137l-45 -397h-258zM319 606h95l-39 598h-8z" />
<glyph unicode="&#xc1;" d="M39 0v1458h631v-209h-342v-360h51q150 0 237 -64q102 -74 103 -231v-299q0 -158 -103 -232q-88 -63 -237 -63h-340zM328 209h34q37 0 52.5 20.5t15.5 71.5v287q0 53 -15.5 72.5t-52.5 19.5h-34v-471z" />
<glyph unicode="&#x411;" d="M39 0v1458h631v-209h-342v-360h51q150 0 237 -64q102 -74 103 -231v-299q0 -158 -103 -232q-88 -63 -237 -63h-340zM328 209h34q37 0 52.5 20.5t15.5 71.5v287q0 53 -15.5 72.5t-52.5 19.5h-34v-471z" />
<glyph unicode="&#xc2;" d="M39 0v1458h340q150 0 237 -63q102 -74 103 -232v-110q0 -117 -39 -176q-47 -72 -178 -99q117 -16 167 -85.5t50 -237.5v-127q0 -182 -86 -258q-78 -70 -254 -70h-340zM328 209h34q39 0 53.5 14.5t14.5 55.5v323q0 41 -14.5 55.5t-53.5 14.5h-34v-463zM328 852h34 q37 0 52.5 20.5t15.5 71.5v213q0 53 -15.5 72.5t-52.5 19.5h-34v-397z" />
<glyph unicode="&#x412;" d="M39 0v1458h340q150 0 237 -63q102 -74 103 -232v-110q0 -117 -39 -176q-47 -72 -178 -99q117 -16 167 -85.5t50 -237.5v-127q0 -182 -86 -258q-78 -70 -254 -70h-340zM328 209h34q39 0 53.5 14.5t14.5 55.5v323q0 41 -14.5 55.5t-53.5 14.5h-34v-463zM328 852h34 q37 0 52.5 20.5t15.5 71.5v213q0 53 -15.5 72.5t-52.5 19.5h-34v-397z" />
<glyph unicode="&#xc3;" horiz-adv-x="606" d="M39 0v1458h545v-209h-256v-1249h-289z" />
<glyph unicode="&#x413;" horiz-adv-x="606" d="M39 0v1458h545v-209h-256v-1249h-289z" />
<glyph unicode="&#xc4;" horiz-adv-x="796" d="M0 -221v454h25q25 0 48 70t23 170v985h660v-1225h39v-454h-260v221h-275v-221h-260zM303 233h164v992h-102v-752q-1 -160 -62 -240z" />
<glyph unicode="&#x414;" horiz-adv-x="796" d="M0 -221v454h25q25 0 48 70t23 170v985h660v-1225h39v-454h-260v221h-275v-221h-260zM303 233h164v992h-102v-752q-1 -160 -62 -240z" />
<glyph unicode="&#xc5;" horiz-adv-x="606" d="M47 0v1458h541v-209h-252v-334h242v-208h-242v-498h252v-209h-541z" />
<glyph unicode="&#x415;" horiz-adv-x="606" d="M47 0v1458h541v-209h-252v-334h242v-208h-242v-498h252v-209h-541z" />
<glyph unicode="&#xc6;" horiz-adv-x="1138" d="M6 0l164 854l-162 604h285l131 -645l4 645h285v-645l135 645h285l-162 -604l164 -854h-287l-131 764l-4 -764h-285v764l-135 -764h-287z" />
<glyph unicode="&#x416;" horiz-adv-x="1138" d="M6 0l164 854l-162 604h285l131 -645l4 645h285v-645l135 645h285l-162 -604l164 -854h-287l-131 764l-4 -764h-285v764l-135 -764h-287z" />
<glyph unicode="&#xc7;" d="M39 238v335h289v-288q0 -41 10 -69t41 -28t41 28t10 69v258q0 68 -22.5 88t-104.5 20h-57v217h57q78 0 102.5 20.5t24.5 88.5v197q0 41 -10 68.5t-41 27.5t-41 -28t-10 -68v-230h-289v277q0 135 102 204q92 61 238 62q150 0 237 -60q102 -68 103 -206v-162 q0 -129 -37 -193q-45 -78 -162 -94v-10q113 -16 160 -94q39 -66 39 -193v-237q0 -135 -103 -205q-92 -61 -237 -62q-150 0 -238 60q-102 68 -102 207z" />
<glyph unicode="&#x417;" d="M39 238v335h289v-288q0 -41 10 -69t41 -28t41 28t10 69v258q0 68 -22.5 88t-104.5 20h-57v217h57q78 0 102.5 20.5t24.5 88.5v197q0 41 -10 68.5t-41 27.5t-41 -28t-10 -68v-230h-289v277q0 135 102 204q92 61 238 62q150 0 237 -60q102 -68 103 -206v-162 q0 -129 -37 -193q-45 -78 -162 -94v-10q113 -16 160 -94q39 -66 39 -193v-237q0 -135 -103 -205q-92 -61 -237 -62q-150 0 -238 60q-102 68 -102 207z" />
<glyph unicode="&#xc8;" horiz-adv-x="872" d="M41 0v1458h231v-946l172 946h387v-1458h-231v1147l-209 -1147h-350z" />
<glyph unicode="&#x418;" horiz-adv-x="872" d="M41 0v1458h231v-946l172 946h387v-1458h-231v1147l-209 -1147h-350z" />
<glyph unicode="&#xc9;" horiz-adv-x="872" d="M41 0v1458h231v-946l172 946h387v-1458h-231v1147l-209 -1147h-350zM150 1827h88q10 -76 73 -107q47 -23 135 -22q76 0 123 26q57 33 74 99h86q0 -129 -79 -194.5t-214 -65.5q-129 0 -207.5 68.5t-78.5 195.5z" />
<glyph unicode="&#x419;" horiz-adv-x="872" d="M41 0v1458h231v-946l172 946h387v-1458h-231v1147l-209 -1147h-350zM150 1827h88q10 -76 73 -107q47 -23 135 -22q76 0 123 26q57 33 74 99h86q0 -129 -79 -194.5t-214 -65.5q-129 0 -207.5 68.5t-78.5 195.5z" />
<glyph unicode="&#xca;" d="M27 0v1458h288v-645l150 645h285l-177 -604l179 -854h-287l-146 764l-4 -764h-288z" />
<glyph unicode="&#x41a;" d="M27 0v1458h288v-645l150 645h285l-177 -604l179 -854h-287l-146 764l-4 -764h-288z" />
<glyph unicode="&#xcb;" horiz-adv-x="796" d="M2 -29v258q96 0 96 142v1087h660v-1458h-289v1225h-102v-854q0 -193 -80 -291q-88 -109 -285 -109z" />
<glyph unicode="&#x41b;" horiz-adv-x="796" d="M2 -29v258q96 0 96 142v1087h660v-1458h-289v1225h-102v-854q0 -193 -80 -291q-88 -109 -285 -109z" />
<glyph unicode="&#xcc;" horiz-adv-x="1214" d="M47 0v1458h445l124 -979l148 979h403v-1458h-260v1069l-4 4l-176 -1073h-248l-168 1053l-4 -1053h-260z" />
<glyph unicode="&#x41c;" horiz-adv-x="1214" d="M47 0v1458h445l124 -979l148 979h403v-1458h-260v1069l-4 4l-176 -1073h-248l-168 1053l-4 -1053h-260z" />
<glyph unicode="&#xcd;" d="M39 0v1458h289v-528h102v528h289v-1458h-289v696h-102v-696h-289z" />
<glyph unicode="&#x41d;" d="M39 0v1458h289v-528h102v528h289v-1458h-289v696h-102v-696h-289z" />
<glyph unicode="&#xce;" d="M39 238v983q0 135 102 204q92 61 238 62q150 0 237 -60q102 -68 103 -206v-983q0 -135 -103 -205q-92 -61 -237 -62q-150 0 -238 60q-102 68 -102 207zM328 285q0 -41 10 -69t41 -28t41 28t10 69v889q0 41 -10 68.5t-41 27.5t-41 -28t-10 -68v-889z" />
<glyph unicode="&#x41e;" d="M39 238v983q0 135 102 204q92 61 238 62q150 0 237 -60q102 -68 103 -206v-983q0 -135 -103 -205q-92 -61 -237 -62q-150 0 -238 60q-102 68 -102 207zM328 285q0 -41 10 -69t41 -28t41 28t10 69v889q0 41 -10 68.5t-41 27.5t-41 -28t-10 -68v-889z" />
<glyph unicode="&#xcf;" d="M39 0v1458h680v-1458h-289v1225h-102v-1225h-289z" />
<glyph unicode="&#x41f;" d="M39 0v1458h680v-1458h-289v1225h-102v-1225h-289z" />
<glyph unicode="&#xd0;" d="M39 0v1458h340q150 0 237 -63q102 -74 103 -232v-299q0 -158 -103 -231q-88 -63 -237 -64h-51v-569h-289zM328 778h34q37 0 52.5 20.5t15.5 71.5v287q0 53 -15.5 72.5t-52.5 19.5h-34v-471z" />
<glyph unicode="&#x420;" d="M39 0v1458h340q150 0 237 -63q102 -74 103 -232v-299q0 -158 -103 -231q-88 -63 -237 -64h-51v-569h-289zM328 778h34q37 0 52.5 20.5t15.5 71.5v287q0 53 -15.5 72.5t-52.5 19.5h-34v-471z" />
<glyph unicode="&#xd1;" d="M39 238v983q0 135 102 204q92 61 238 62q150 0 237 -60q102 -68 103 -206v-277h-289v230q0 41 -10 68.5t-41 27.5t-41 -28t-10 -68v-889q0 -41 10 -69t41 -28t41 28t10 69v288h289v-335q0 -135 -103 -205q-92 -61 -237 -62q-150 0 -238 60q-102 68 -102 207z" />
<glyph unicode="&#x421;" d="M39 238v983q0 135 102 204q92 61 238 62q150 0 237 -60q102 -68 103 -206v-277h-289v230q0 41 -10 68.5t-41 27.5t-41 -28t-10 -68v-889q0 -41 10 -69t41 -28t41 28t10 69v288h289v-335q0 -135 -103 -205q-92 -61 -237 -62q-150 0 -238 60q-102 68 -102 207z" />
<glyph unicode="&#xd2;" horiz-adv-x="681" d="M2 1249v209h678v-209h-195v-1249h-288v1249h-195z" />
<glyph unicode="&#x422;" horiz-adv-x="681" d="M2 1249v209h678v-209h-195v-1249h-288v1249h-195z" />
<glyph unicode="&#xd3;" d="M-8 1458h303l96 -772l115 772h260l-297 -1458h-248l49 236z" />
<glyph unicode="&#x423;" d="M-8 1458h303l96 -772l115 772h260l-297 -1458h-248l49 236z" />
<glyph unicode="&#xd4;" horiz-adv-x="1138" d="M39 471v516q0 135 102 205q92 61 238 61h47v205h289v-205h47q150 0 237 -59q102 -68 103 -207v-516q0 -135 -103 -205q-92 -61 -237 -61h-47v-205h-289v205h-47q-150 0 -238 59q-102 68 -102 207zM328 510q0 -41 10 -68.5t41 -27.5h47v630h-47q-31 0 -41 -27.5t-10 -68.5 v-438zM715 414h47q31 0 41 27.5t10 68.5v438q0 41 -10 68.5t-41 27.5h-47v-630z" />
<glyph unicode="&#x424;" horiz-adv-x="1138" d="M39 471v516q0 135 102 205q92 61 238 61h47v205h289v-205h47q150 0 237 -59q102 -68 103 -207v-516q0 -135 -103 -205q-92 -61 -237 -61h-47v-205h-289v205h-47q-150 0 -238 59q-102 68 -102 207zM328 510q0 -41 10 -68.5t41 -27.5h47v630h-47q-31 0 -41 -27.5t-10 -68.5 v-438zM715 414h47q31 0 41 27.5t10 68.5v438q0 41 -10 68.5t-41 27.5h-47v-630z" />
<glyph unicode="&#xd5;" d="M-10 0l174 754l-162 704h301l92 -526l97 526h262l-160 -663l172 -795h-307l-94 623l-105 -623h-270z" />
<glyph unicode="&#x425;" d="M-10 0l174 754l-162 704h301l92 -526l97 526h262l-160 -663l172 -795h-307l-94 623l-105 -623h-270z" />
<glyph unicode="&#xd6;" d="M39 0v1458h289v-1225h102v1225h289v-1225h39v-454h-260v221h-459z" />
<glyph unicode="&#x426;" d="M39 0v1458h289v-1225h102v1225h289v-1225h39v-454h-260v221h-459z" />
<glyph unicode="&#xd7;" d="M39 834v624h289v-528q0 -53 37 -53t65 53v528h289v-1458h-289v696q-35 -43 -85 -65.5t-107 -22.5q-86 0 -138 51q-61 60 -61 175z" />
<glyph unicode="&#x427;" d="M39 834v624h289v-528q0 -53 37 -53t65 53v528h289v-1458h-289v696q-35 -43 -85 -65.5t-107 -22.5q-86 0 -138 51q-61 60 -61 175z" />
<glyph unicode="&#xd8;" horiz-adv-x="1138" d="M39 0v1458h289v-1225h96v1225h289v-1225h96v1225h289v-1458h-1059z" />
<glyph unicode="&#x428;" horiz-adv-x="1138" d="M39 0v1458h289v-1225h96v1225h289v-1225h96v1225h289v-1458h-1059z" />
<glyph unicode="&#xd9;" horiz-adv-x="1138" d="M39 0v1458h289v-1225h96v1225h289v-1225h96v1225h289v-1225h39v-454h-289v221h-809z" />
<glyph unicode="&#x429;" horiz-adv-x="1138" d="M39 0v1458h289v-1225h96v1225h289v-1225h96v1225h289v-1225h39v-454h-289v221h-809z" />
<glyph unicode="&#xda;" horiz-adv-x="833" d="M2 1249v209h401v-569h52q150 0 237 -64q102 -74 103 -231v-299q0 -158 -103 -232q-88 -63 -237 -63h-340v1249h-113zM403 209h35q37 0 52.5 20.5t15.5 71.5v287q0 53 -15.5 72.5t-52.5 19.5h-35v-471z" />
<glyph unicode="&#x42a;" horiz-adv-x="833" d="M2 1249v209h401v-569h52q150 0 237 -64q102 -74 103 -231v-299q0 -158 -103 -232q-88 -63 -237 -63h-340v1249h-113zM403 209h35q37 0 52.5 20.5t15.5 71.5v287q0 53 -15.5 72.5t-52.5 19.5h-35v-471z" />
<glyph unicode="&#xdb;" horiz-adv-x="1138" d="M43 0v1458h289v-569h51q150 0 238 -64q102 -74 102 -231v-299q0 -158 -102 -232q-88 -63 -238 -63h-340zM332 209h35q37 0 52 20.5t15 71.5v287q0 53 -15.5 72.5t-51.5 19.5h-35v-471zM807 0v1458h289v-1458h-289z" />
<glyph unicode="&#x42b;" horiz-adv-x="1138" d="M43 0v1458h289v-569h51q150 0 238 -64q102 -74 102 -231v-299q0 -158 -102 -232q-88 -63 -238 -63h-340zM332 209h35q37 0 52 20.5t15 71.5v287q0 53 -15.5 72.5t-51.5 19.5h-35v-471zM807 0v1458h289v-1458h-289z" />
<glyph unicode="&#xdc;" d="M39 0v1458h289v-569h51q150 0 237 -64q102 -74 103 -231v-299q0 -158 -103 -232q-88 -63 -237 -63h-340zM328 209h34q37 0 52.5 20.5t15.5 71.5v287q0 53 -15.5 72.5t-52.5 19.5h-34v-471z" />
<glyph unicode="&#x42c;" d="M39 0v1458h289v-569h51q150 0 237 -64q102 -74 103 -231v-299q0 -158 -103 -232q-88 -63 -237 -63h-340zM328 209h34q37 0 52.5 20.5t15.5 71.5v287q0 53 -15.5 72.5t-52.5 19.5h-34v-471z" />
<glyph unicode="&#xdd;" d="M39 238v335h289v-288q0 -41 10 -69t41 -28t41 28t10 69v366h-184v217h184v306q0 41 -10 68.5t-41 27.5t-41 -28t-10 -68v-230h-289v277q0 135 102 204q92 61 238 62q150 0 237 -60q102 -68 103 -206v-983q0 -135 -103 -205q-92 -61 -237 -62q-150 0 -238 60 q-102 68 -102 207z" />
<glyph unicode="&#x42d;" d="M39 238v335h289v-288q0 -41 10 -69t41 -28t41 28t10 69v366h-184v217h184v306q0 41 -10 68.5t-41 27.5t-41 -28t-10 -68v-230h-289v277q0 135 102 204q92 61 238 62q150 0 237 -60q102 -68 103 -206v-983q0 -135 -103 -205q-92 -61 -237 -62q-150 0 -238 60 q-102 68 -102 207z" />
<glyph unicode="&#xde;" horiz-adv-x="1138" d="M39 0v1458h289v-528h92v291q0 135 102 204q92 61 238 62q150 0 237 -60q102 -68 103 -206v-983q0 -135 -103 -205q-92 -61 -237 -62q-150 0 -238 60q-102 68 -102 207v458h-92v-696h-289zM709 285q0 -41 10 -69t41 -28t41 28t10 69v889q0 41 -10 68.5t-41 27.5t-41 -28 t-10 -68v-889z" />
<glyph unicode="&#x42e;" horiz-adv-x="1138" d="M39 0v1458h289v-528h92v291q0 135 102 204q92 61 238 62q150 0 237 -60q102 -68 103 -206v-983q0 -135 -103 -205q-92 -61 -237 -62q-150 0 -238 60q-102 68 -102 207v458h-92v-696h-289zM709 285q0 -41 10 -69t41 -28t41 28t10 69v889q0 41 -10 68.5t-41 27.5t-41 -28 t-10 -68v-889z" />
<glyph unicode="&#xdf;" d="M-4 0q25 84 27 96q16 76 16 162v289q0 131 46 188.5t177 57.5q-119 2 -176 81q-47 63 -47 160v129q0 158 102 232q88 63 238 63h340v-1458h-289v682q-53 0 -77.5 -28.5t-24.5 -133.5v-332q0 -76 -8.5 -110.5t-30.5 -77.5h-293zM328 942q0 -53 15 -72.5t52 -19.5h35v399 h-35q-37 0 -52 -20.5t-15 -71.5v-215z" />
<glyph unicode="&#x42f;" d="M-4 0q25 84 27 96q16 76 16 162v289q0 131 46 188.5t177 57.5q-119 2 -176 81q-47 63 -47 160v129q0 158 102 232q88 63 238 63h340v-1458h-289v682q-53 0 -77.5 -28.5t-24.5 -133.5v-332q0 -76 -8.5 -110.5t-30.5 -77.5h-293zM328 942q0 -53 15 -72.5t52 -19.5h35v399 h-35q-37 0 -52 -20.5t-15 -71.5v-215z" />
<glyph unicode="&#xe0;" horiz-adv-x="681" d="M35 197v252q0 152 176 233.5t176 202.5v47q0 25 -11 43t-36 18t-35 -18.5t-10 -42.5v-168h-260v158q0 127 86 195.5t219 68.5q131 0 219 -68.5t88 -195.5v-684q0 -49 4 -91q14 -139 15 -147h-265l-14 119q-55 -133 -178 -133q-94 0 -134 53.5t-40 157.5zM295 240 q0 -27 10 -44.5t35 -17.5t36 17.5t11 44.5v338l-47 -33q-31 -27 -38 -40t-7 -52v-213z" />
<glyph unicode="&#x430;" horiz-adv-x="681" d="M35 197v252q0 152 176 233.5t176 202.5v47q0 25 -11 43t-36 18t-35 -18.5t-10 -42.5v-168h-260v158q0 127 86 195.5t219 68.5q131 0 219 -68.5t88 -195.5v-684q0 -49 4 -91q14 -139 15 -147h-265l-14 119q-55 -133 -178 -133q-94 0 -134 53.5t-40 157.5zM295 240 q0 -27 10 -44.5t35 -17.5t36 17.5t11 44.5v338l-47 -33q-31 -27 -38 -40t-7 -52v-213z" />
<glyph unicode="&#xe1;" horiz-adv-x="681" d="M35 250l2 762q0 225 37 338q57 174 197.5 201.5t173 44t32.5 42.5h170q0 -262 -258 -305q-90 -16 -127 -94t-37 -207h2q31 66 62 96q55 57 133 58q102 0 163.5 -67.5t61.5 -196.5v-672q0 -127 -92 -199q-84 -66 -215 -65q-133 0 -215 65q-90 72 -90 199zM295 240 q0 -27 10 -44.5t35 -17.5t36 17.5t11 44.5v692q0 25 -11 43t-36 18t-35 -18.5t-10 -42.5v-692z" />
<glyph unicode="&#x431;" horiz-adv-x="681" d="M35 250l2 762q0 225 37 338q57 174 197.5 201.5t173 44t32.5 42.5h170q0 -262 -258 -305q-90 -16 -127 -94t-37 -207h2q31 66 62 96q55 57 133 58q102 0 163.5 -67.5t61.5 -196.5v-672q0 -127 -92 -199q-84 -66 -215 -65q-133 0 -215 65q-90 72 -90 199zM295 240 q0 -27 10 -44.5t35 -17.5t36 17.5t11 44.5v692q0 25 -11 43t-36 18t-35 -18.5t-10 -42.5v-692z" />
<glyph unicode="&#xe2;" horiz-adv-x="681" d="M35 0v1171h307q135 0 213 -51q92 -59 92 -186v-88q0 -96 -31 -144q-39 -59 -143 -77q104 -33 139 -83t35 -177v-101q0 -145 -73.5 -204.5t-231.5 -59.5h-307zM295 186h31q61 0 61 56v233q0 33 -14.5 45t-46.5 12h-31v-346zM295 694h31q35 0 48 15.5t13 58.5v143 q0 74 -61 74h-31v-291z" />
<glyph unicode="&#x432;" horiz-adv-x="681" d="M35 0v1171h307q135 0 213 -51q92 -59 92 -186v-88q0 -96 -31 -144q-39 -59 -143 -77q104 -33 139 -83t35 -177v-101q0 -145 -73.5 -204.5t-231.5 -59.5h-307zM295 186h31q61 0 61 56v233q0 33 -14.5 45t-46.5 12h-31v-346zM295 694h31q35 0 48 15.5t13 58.5v143 q0 74 -61 74h-31v-291z" />
<glyph unicode="&#xe3;" horiz-adv-x="530" d="M35 0v1171h491v-186h-231v-985h-260z" />
<glyph unicode="&#x433;" horiz-adv-x="530" d="M35 0v1171h491v-186h-231v-985h-260z" />
<glyph unicode="&#xe4;" horiz-adv-x="716" d="M0 207h23q20 0 41.5 56t21.5 134v774h594v-964h35v-428h-234v221h-248v-221h-233v428zM276 207h144v758h-92v-568q0 -57 -13.5 -107t-38.5 -83z" />
<glyph unicode="&#x434;" horiz-adv-x="716" d="M0 207h23q20 0 41.5 56t21.5 134v774h594v-964h35v-428h-234v221h-248v-221h-233v428zM276 207h144v758h-92v-568q0 -57 -13.5 -107t-38.5 -83z" />
<glyph unicode="&#xe5;" horiz-adv-x="681" d="M35 250v672q0 127 86 195.5t219 68.5q131 0 219 -68.5t88 -195.5v-377h-352v-305q0 -27 10 -44.5t35 -17.5t36 17.5t11 44.5v225h260v-215q0 -127 -92 -199q-84 -66 -215 -65q-133 0 -215 65q-90 72 -90 199zM295 721h92v211q0 25 -11 43t-36 18t-35 -18.5t-10 -42.5 v-211z" />
<glyph unicode="&#x435;" horiz-adv-x="681" d="M35 250v672q0 127 86 195.5t219 68.5q131 0 219 -68.5t88 -195.5v-377h-352v-305q0 -27 10 -44.5t35 -17.5t36 17.5t11 44.5v225h260v-215q0 -127 -92 -199q-84 -66 -215 -65q-133 0 -215 65q-90 72 -90 199zM295 721h92v211q0 25 -11 43t-36 18t-35 -18.5t-10 -42.5 v-211z" />
<glyph unicode="&#xe6;" horiz-adv-x="1024" d="M4 0l148 668l-146 503h256l117 -526l4 526h256v-526l121 526h256l-146 -503l148 -668h-258l-117 616l-4 -616h-256v616l-121 -616h-258z" />
<glyph unicode="&#x436;" horiz-adv-x="1024" d="M4 0l148 668l-146 503h256l117 -526l4 526h256v-526l121 526h256l-146 -503l148 -668h-258l-117 616l-4 -616h-256v616l-121 -616h-258z" />
<glyph unicode="&#xe7;" horiz-adv-x="681" d="M39 250v215h260v-225q0 -25 12.5 -43.5t36.5 -18.5q25 0 34 16.5t9 45.5v188q0 53 -21.5 69.5t-93.5 16.5h-51v195h51q72 0 93.5 15t21.5 71v137q0 27 -10 44t-35 17t-36 -17.5t-11 -43.5v-168h-260v158q0 127 88 195.5t219 68.5q133 0 219 -68.5t86 -195.5v-72 q0 -102 -33 -154q-41 -63 -145 -75v-9q102 -12 143 -75q35 -53 35 -156v-131q0 -127 -90 -199q-82 -66 -215 -65q-131 0 -215 65q-92 72 -92 199z" />
<glyph unicode="&#x437;" horiz-adv-x="681" d="M39 250v215h260v-225q0 -25 12.5 -43.5t36.5 -18.5q25 0 34 16.5t9 45.5v188q0 53 -21.5 69.5t-93.5 16.5h-51v195h51q72 0 93.5 15t21.5 71v137q0 27 -10 44t-35 17t-36 -17.5t-11 -43.5v-168h-260v158q0 127 88 195.5t219 68.5q133 0 219 -68.5t86 -195.5v-72 q0 -102 -33 -154q-41 -63 -145 -75v-9q102 -12 143 -75q35 -53 35 -156v-131q0 -127 -90 -199q-82 -66 -215 -65q-131 0 -215 65q-92 72 -92 199z" />
<glyph unicode="&#xe8;" d="M33 0v1171h209v-759l133 759h350v-1171h-209v922l-168 -922h-315z" />
<glyph unicode="&#x438;" d="M33 0v1171h209v-759l133 759h350v-1171h-209v922l-168 -922h-315z" />
<glyph unicode="&#xe9;" d="M33 0v1171h209v-759l133 759h350v-1171h-209v922l-168 -922h-315zM92 1540h88q10 -76 74 -106q47 -23 135 -23q76 0 123 27q57 33 74 98h86q0 -129 -79 -194.5t-214 -65.5q-129 0 -208 68.5t-79 195.5z" />
<glyph unicode="&#x439;" d="M33 0v1171h209v-759l133 759h350v-1171h-209v922l-168 -922h-315zM92 1540h88q10 -76 74 -106q47 -23 135 -23q76 0 123 27q57 33 74 98h86q0 -129 -79 -194.5t-214 -65.5q-129 0 -208 68.5t-79 195.5z" />
<glyph unicode="&#xea;" horiz-adv-x="681" d="M39 0v1171h260v-526l109 526h270l-127 -503l123 -668h-266l-105 616l-4 -616h-260z" />
<glyph unicode="&#x43a;" horiz-adv-x="681" d="M39 0v1171h260v-526l109 526h270l-127 -503l123 -668h-266l-105 616l-4 -616h-260z" />
<glyph unicode="&#xeb;" horiz-adv-x="716" d="M2 -23v226q86 0 86 112v856h594v-1171h-260v965h-92v-650q0 -158 -72 -241q-82 -97 -256 -97z" />
<glyph unicode="&#x43b;" horiz-adv-x="716" d="M2 -23v226q86 0 86 112v856h594v-1171h-260v965h-92v-650q0 -158 -72 -241q-82 -97 -256 -97z" />
<glyph unicode="&#xec;" horiz-adv-x="1099" d="M35 0v1171h407l115 -786l143 786h365v-1171h-234v858l-4 4l-168 -862h-225l-162 846l-4 -846h-233z" />
<glyph unicode="&#x43c;" horiz-adv-x="1099" d="M35 0v1171h407l115 -786l143 786h365v-1171h-234v858l-4 4l-168 -862h-225l-162 846l-4 -846h-233z" />
<glyph unicode="&#xed;" horiz-adv-x="681" d="M35 0v1171h260v-415h92v415h260v-1171h-260v549h-92v-549h-260z" />
<glyph unicode="&#x43d;" horiz-adv-x="681" d="M35 0v1171h260v-415h92v415h260v-1171h-260v549h-92v-549h-260z" />
<glyph unicode="&#xee;" horiz-adv-x="681" d="M35 250v672q0 127 86 195.5t219 68.5q131 0 219 -68.5t88 -195.5v-672q0 -127 -92 -199q-84 -66 -215 -65q-133 0 -215 65q-90 72 -90 199zM295 240q0 -27 10 -44.5t35 -17.5t36 17.5t11 44.5v692q0 25 -11 43t-36 18t-35 -18.5t-10 -42.5v-692z" />
<glyph unicode="&#x43e;" horiz-adv-x="681" d="M35 250v672q0 127 86 195.5t219 68.5q131 0 219 -68.5t88 -195.5v-672q0 -127 -92 -199q-84 -66 -215 -65q-133 0 -215 65q-90 72 -90 199zM295 240q0 -27 10 -44.5t35 -17.5t36 17.5t11 44.5v692q0 25 -11 43t-36 18t-35 -18.5t-10 -42.5v-692z" />
<glyph unicode="&#xef;" horiz-adv-x="681" d="M37 0v1171h612v-1171h-260v965h-92v-965h-260z" />
<glyph unicode="&#x43f;" horiz-adv-x="681" d="M37 0v1171h612v-1171h-260v965h-92v-965h-260z" />
<glyph unicode="&#xf0;" horiz-adv-x="681" d="M39 -262v1433h260v-122q14 61 59 99t105 38q109 0 153 -82q35 -63 35 -180v-682q0 -117 -33 -176q-45 -80 -155 -80q-57 0 -102.5 32.5t-57.5 83.5l-4 -364h-260zM299 260q0 -27 10 -44t35 -17t36 17t11 44v651q0 25 -11 43.5t-36 18.5t-35 -18.5t-10 -43.5v-651z" />
<glyph unicode="&#x440;" horiz-adv-x="681" d="M39 -262v1433h260v-122q14 61 59 99t105 38q109 0 153 -82q35 -63 35 -180v-682q0 -117 -33 -176q-45 -80 -155 -80q-57 0 -102.5 32.5t-57.5 83.5l-4 -364h-260zM299 260q0 -27 10 -44t35 -17t36 17t11 44v651q0 25 -11 43.5t-36 18.5t-35 -18.5t-10 -43.5v-651z" />
<glyph unicode="&#xf1;" horiz-adv-x="681" d="M35 250v672q0 127 86 195.5t219 68.5q131 0 219 -68.5t88 -195.5v-158h-260v168q0 25 -11 43t-36 18t-35 -18.5t-10 -42.5v-692q0 -27 10 -44.5t35 -17.5t36 17.5t11 44.5v225h260v-215q0 -127 -92 -199q-84 -66 -215 -65q-133 0 -215 65q-90 72 -90 199z" />
<glyph unicode="&#x441;" horiz-adv-x="681" d="M35 250v672q0 127 86 195.5t219 68.5q131 0 219 -68.5t88 -195.5v-158h-260v168q0 25 -11 43t-36 18t-35 -18.5t-10 -42.5v-692q0 -27 10 -44.5t35 -17.5t36 17.5t11 44.5v225h260v-215q0 -127 -92 -199q-84 -66 -215 -65q-133 0 -215 65q-90 72 -90 199z" />
<glyph unicode="&#xf2;" horiz-adv-x="606" d="M0 985v186h606v-186h-174v-985h-260v985h-172z" />
<glyph unicode="&#x442;" horiz-adv-x="606" d="M0 985v186h606v-186h-174v-985h-260v985h-172z" />
<glyph unicode="&#xf3;" horiz-adv-x="681" d="M8 1171h260l72 -895l90 895h242l-185 -1183q-25 -158 -80 -204t-243 -46h-131v192h82q74 0 73 54l-2 34z" />
<glyph unicode="&#x443;" horiz-adv-x="681" d="M8 1171h260l72 -895l90 895h242l-185 -1183q-25 -158 -80 -204t-243 -46h-131v192h82q74 0 73 54l-2 34z" />
<glyph unicode="&#xf4;" horiz-adv-x="1024" d="M29 242v682q0 156 51 213q45 49 131 49q59 0 104 -33t62 -94l4 399h260v-399q20 61 65.5 94t104.5 33q111 0 152 -78q31 -57 30 -178v-682q0 -156 -48 -209t-134 -53q-57 0 -102 35.5t-64 91.5l-4 -375h-260v375q-20 -51 -67.5 -89t-102.5 -38q-111 0 -152 77 q-30 58 -30 179zM289 260q0 -27 10 -44t35 -17t36 17t11 44v651q0 25 -11.5 43.5t-35.5 18.5q-25 0 -35 -18.5t-10 -43.5v-651zM641 260q0 -27 10.5 -44t34.5 -17q25 0 36 17t11 44v651q0 25 -11 43.5t-36 18.5t-35 -18.5t-10 -43.5v-651z" />
<glyph unicode="&#x444;" horiz-adv-x="1024" d="M29 242v682q0 156 51 213q45 49 131 49q59 0 104 -33t62 -94l4 399h260v-399q20 61 65.5 94t104.5 33q111 0 152 -78q31 -57 30 -178v-682q0 -156 -48 -209t-134 -53q-57 0 -102 35.5t-64 91.5l-4 -375h-260v375q-20 -51 -67.5 -89t-102.5 -38q-111 0 -152 77 q-30 58 -30 179zM289 260q0 -27 10 -44t35 -17t36 17t11 44v651q0 25 -11.5 43.5t-35.5 18.5q-25 0 -35 -18.5t-10 -43.5v-651zM641 260q0 -27 10.5 -44t34.5 -17q25 0 36 17t11 44v651q0 25 -11 43.5t-36 18.5t-35 -18.5t-10 -43.5v-651z" />
<glyph unicode="&#xf5;" horiz-adv-x="681" d="M2 0l145 616l-133 555h273l69 -446l74 446h240l-129 -563l139 -608h-274l-74 473l-88 -473h-242z" />
<glyph unicode="&#x445;" horiz-adv-x="681" d="M2 0l145 616l-133 555h273l69 -446l74 446h240l-129 -563l139 -608h-274l-74 473l-88 -473h-242z" />
<glyph unicode="&#xf6;" horiz-adv-x="681" d="M35 0v1171h260v-946h92v946h260v-946h35v-446h-233v221h-414z" />
<glyph unicode="&#x446;" horiz-adv-x="681" d="M35 0v1171h260v-946h92v946h260v-946h35v-446h-233v221h-414z" />
<glyph unicode="&#xf7;" horiz-adv-x="681" d="M35 659v512h260v-415q0 -43 33 -43q31 0 59 43v415h260v-1171h-260v549q-66 -72 -172 -72q-78 0 -125 41q-55 47 -55 141z" />
<glyph unicode="&#x447;" horiz-adv-x="681" d="M35 659v512h260v-415q0 -43 33 -43q31 0 59 43v415h260v-1171h-260v549q-66 -72 -172 -72q-78 0 -125 41q-55 47 -55 141z" />
<glyph unicode="&#xf8;" horiz-adv-x="1024" d="M35 0v1171h260v-964h86v964h260v-964h86v964h260v-1171h-952z" />
<glyph unicode="&#x448;" horiz-adv-x="1024" d="M35 0v1171h260v-964h86v964h260v-964h86v964h260v-1171h-952z" />
<glyph unicode="&#xf9;" horiz-adv-x="1024" d="M35 0v1171h260v-964h86v964h260v-964h86v964h260v-964h35v-385h-234v178h-753z" />
<glyph unicode="&#x449;" horiz-adv-x="1024" d="M35 0v1171h260v-964h86v964h260v-964h86v964h260v-964h35v-385h-234v178h-753z" />
<glyph unicode="&#xfa;" horiz-adv-x="751" d="M2 1004v167h360v-448h48q135 0 213 -51q92 -59 92 -187v-247q0 -127 -92 -187q-78 -51 -213 -51h-308v1004h-100zM362 186h33q59 0 60 74v203q0 74 -60 74h-33v-351z" />
<glyph unicode="&#x44a;" horiz-adv-x="751" d="M2 1004v167h360v-448h48q135 0 213 -51q92 -59 92 -187v-247q0 -127 -92 -187q-78 -51 -213 -51h-308v1004h-100zM362 186h33q59 0 60 74v203q0 74 -60 74h-33v-351z" />
<glyph unicode="&#xfb;" horiz-adv-x="1026" d="M35 0v1171h260v-448h47q135 0 213 -51q92 -59 92 -187v-247q0 -127 -92 -187q-78 -51 -213 -51h-307zM295 186h31q35 0 48 15.5t13 58.5v203q0 74 -61 74h-31v-351zM727 0v1171h260v-1171h-260z" />
<glyph unicode="&#x44b;" horiz-adv-x="1026" d="M35 0v1171h260v-448h47q135 0 213 -51q92 -59 92 -187v-247q0 -127 -92 -187q-78 -51 -213 -51h-307zM295 186h31q35 0 48 15.5t13 58.5v203q0 74 -61 74h-31v-351zM727 0v1171h260v-1171h-260z" />
<glyph unicode="&#xfc;" horiz-adv-x="681" d="M35 0v1171h260v-448h47q135 0 213 -51q92 -59 92 -187v-247q0 -127 -92 -187q-78 -51 -213 -51h-307zM295 186h31q35 0 48 15.5t13 58.5v203q0 74 -61 74h-31v-351z" />
<glyph unicode="&#x44c;" horiz-adv-x="681" d="M35 0v1171h260v-448h47q135 0 213 -51q92 -59 92 -187v-247q0 -127 -92 -187q-78 -51 -213 -51h-307zM295 186h31q35 0 48 15.5t13 58.5v203q0 74 -61 74h-31v-351z" />
<glyph unicode="&#xfd;" horiz-adv-x="681" d="M35 250v215h260v-225q0 -25 11 -43.5t36 -18.5t35 18.5t10 43.5v274h-166v195h166v223q0 27 -10 44t-35 17t-36 -17.5t-11 -43.5v-168h-260v158q0 127 88 195.5t219 68.5q133 0 219 -68.5t86 -195.5v-672q0 -127 -90 -199q-82 -66 -215 -65q-131 0 -215 65 q-92 72 -92 199z" />
<glyph unicode="&#x44d;" horiz-adv-x="681" d="M35 250v215h260v-225q0 -25 11 -43.5t36 -18.5t35 18.5t10 43.5v274h-166v195h166v223q0 27 -10 44t-35 17t-36 -17.5t-11 -43.5v-168h-260v158q0 127 88 195.5t219 68.5q133 0 219 -68.5t86 -195.5v-672q0 -127 -90 -199q-82 -66 -215 -65q-131 0 -215 65 q-92 72 -92 199z" />
<glyph unicode="&#xfe;" horiz-adv-x="1024" d="M35 0v1171h260v-415h80v166q0 127 86 195.5t219 68.5q131 0 219 -68.5t88 -195.5v-672q0 -127 -92 -199q-84 -66 -215 -65q-133 0 -215 65q-90 72 -90 199v299h-80v-549h-260zM635 240q0 -27 10 -44.5t35 -17.5t36 17.5t11 44.5v692q0 25 -11 43t-36 18t-35 -18.5 t-10 -42.5v-692z" />
<glyph unicode="&#x44e;" horiz-adv-x="1024" d="M35 0v1171h260v-415h80v166q0 127 86 195.5t219 68.5q131 0 219 -68.5t88 -195.5v-672q0 -127 -92 -199q-84 -66 -215 -65q-133 0 -215 65q-90 72 -90 199v299h-80v-549h-260zM635 240q0 -27 10 -44.5t35 -17.5t36 17.5t11 44.5v692q0 25 -11 43t-36 18t-35 -18.5 t-10 -42.5v-692z" />
<glyph unicode="&#xff;" horiz-adv-x="681" d="M-4 0q25 76 24 78q14 57 15 129v217q0 86 44 130t136 67q-86 14 -133 73.5t-47 136.5v103q0 127 92 186q78 51 215 51h305v-1171h-260v537q-61 0 -76.5 -31t-15.5 -96v-258q0 -55 -9.5 -89t-25.5 -63h-264zM295 768q0 -43 14.5 -59.5t46.5 -16.5h31v293h-31 q-35 0 -48 -15.5t-13 -58.5v-143z" />
<glyph unicode="&#x44f;" horiz-adv-x="681" d="M-4 0q25 76 24 78q14 57 15 129v217q0 86 44 130t136 67q-86 14 -133 73.5t-47 136.5v103q0 127 92 186q78 51 215 51h305v-1171h-260v537q-61 0 -76.5 -31t-15.5 -96v-258q0 -55 -9.5 -89t-25.5 -63h-264zM295 768q0 -43 14.5 -59.5t46.5 -16.5h31v293h-31 q-35 0 -48 -15.5t-13 -58.5v-143z" />
<glyph unicode="&#x152;" horiz-adv-x="1148" d="M39 0v1458h289v-545h102v545h289v-569h51q150 0 238 -64q102 -74 102 -231v-299q0 -158 -102 -232q-88 -63 -238 -63h-340v680h-102v-680h-289zM719 209h35q37 0 52 20.5t15 71.5v287q0 53 -15 72.5t-52 19.5h-35v-471z" />
<glyph unicode="&#x40a;" horiz-adv-x="1148" d="M39 0v1458h289v-545h102v545h289v-569h51q150 0 238 -64q102 -74 102 -231v-299q0 -158 -102 -232q-88 -63 -238 -63h-340v680h-102v-680h-289zM719 209h35q37 0 52 20.5t15 71.5v287q0 53 -15 72.5t-52 19.5h-35v-471z" />
<glyph unicode="&#x153;" horiz-adv-x="1024" d="M35 0v1171h260v-415h92v415h260v-448h47q135 0 213 -51q92 -59 92 -187v-247q0 -127 -92 -187q-78 -51 -213 -51h-307v549h-92v-549h-260zM647 186h31q35 0 48 15.5t13 58.5v203q0 74 -61 74h-31v-351z" />
<glyph unicode="&#x45a;" horiz-adv-x="1024" d="M35 0v1171h260v-415h92v415h260v-448h47q135 0 213 -51q92 -59 92 -187v-247q0 -127 -92 -187q-78 -51 -213 -51h-307v549h-92v-549h-260zM647 186h31q35 0 48 15.5t13 58.5v203q0 74 -61 74h-31v-351z" />
<glyph unicode="&#x178;" horiz-adv-x="681" d="M35 0v1171h260v-946h92v946h260v-1171h-190v-221h-234v221h-188z" />
<glyph unicode="&#x45f;" horiz-adv-x="681" d="M35 0v1171h260v-946h92v946h260v-1171h-190v-221h-234v221h-188z" />
<glyph unicode="&#x2c6;" horiz-adv-x="1138" d="M104 711l357 747h217l356 -747h-239l-226 508l-227 -508h-238z" />
<glyph unicode="&#x2dc;" horiz-adv-x="378" d="M-473 319q41 80 92 121q68 55 164 55q41 0 93.5 -14t142.5 -55q70 -31 119 -50.5t81 -19.5q53 0 103 47q33 31 78 101l73 -197q-63 -88 -102 -121q-68 -55 -154 -55q-55 0 -110 20q-27 10 -96.5 46t-110.5 51q-63 23 -127 22q-59 0 -106 -47q-37 -37 -66 -100z" />
<glyph unicode="&#x2000;" horiz-adv-x="913" />
<glyph unicode="&#x2001;" horiz-adv-x="1826" />
<glyph unicode="&#x2002;" horiz-adv-x="913" />
<glyph unicode="&#x2003;" horiz-adv-x="1826" />
<glyph unicode="&#x2004;" horiz-adv-x="608" />
<glyph unicode="&#x2005;" horiz-adv-x="456" />
<glyph unicode="&#x2006;" horiz-adv-x="303" />
<glyph unicode="&#x2007;" horiz-adv-x="303" />
<glyph unicode="&#x2008;" horiz-adv-x="227" />
<glyph unicode="&#x2009;" horiz-adv-x="364" />
<glyph unicode="&#x200a;" horiz-adv-x="100" />
<glyph unicode="&#x2010;" horiz-adv-x="530" d="M88 541v188h354v-188h-354z" />
<glyph unicode="&#x2011;" horiz-adv-x="530" d="M88 541v188h354v-188h-354z" />
<glyph unicode="&#x2012;" horiz-adv-x="530" d="M88 541v188h354v-188h-354z" />
<glyph unicode="&#x2013;" horiz-adv-x="1024" d="M0 545v180h1024v-180h-1024z" />
<glyph unicode="&#x2014;" horiz-adv-x="2048" d="M0 545v180h2048v-180h-2048z" />
<glyph unicode="&#x2018;" horiz-adv-x="342" d="M18 1458h248l58 -522h-174z" />
<glyph unicode="&#x2019;" horiz-adv-x="342" d="M18 936l58 522h248l-131 -522h-175z" />
<glyph unicode="&#x201a;" horiz-adv-x="342" d="M18 -219l58 522h248l-131 -522h-175z" />
<glyph unicode="&#x201c;" horiz-adv-x="681" d="M16 1458h248l58 -522h-175zM358 1458h248l58 -522h-175z" />
<glyph unicode="&#x201d;" horiz-adv-x="681" d="M18 936l58 522h248l-131 -522h-175zM360 936l58 522h248l-131 -522h-175z" />
<glyph unicode="&#x201e;" horiz-adv-x="681" d="M18 -219l58 522h248l-131 -522h-175zM360 -219l58 522h248l-131 -522h-175z" />
<glyph unicode="&#x2022;" horiz-adv-x="1024" d="M154 729q0 152 103 255t255 103q150 0 254 -104t104 -254t-104 -254t-254 -104q-152 0 -255 103t-103 255z" />
<glyph unicode="&#x2026;" horiz-adv-x="2048" d="M211 0v303h260v-303h-260zM893 0v303h260v-303h-260zM1575 0v303h260v-303h-260z" />
<glyph unicode="&#x202f;" horiz-adv-x="364" />
<glyph unicode="&#x2039;" horiz-adv-x="342" d="M27 498v274l288 324v-277l-178 -184l178 -184v-277z" />
<glyph unicode="&#x203a;" horiz-adv-x="342" d="M27 174v277l178 184l-178 184v277l288 -324v-274z" />
<glyph unicode="&#x205f;" horiz-adv-x="456" />
<glyph unicode="&#x2122;" horiz-adv-x="2048" d="M74 1270v188h704v-188h-227v-656h-250v656h-227zM971 614v844h319l183 -489l182 489h319v-844h-221v553l-190 -553h-181l-186 553l-4 -553h-221z" />
<glyph unicode="&#xe000;" horiz-adv-x="1170" d="M0 1170h1170v-1170h-1170v1170z" />
<glyph unicode="&#xfb01;" horiz-adv-x="759" d="M459 0v1171h260v-1171h-260zM459 1237v221h260v-221h-260zM12 979v192h62v76q0 121 51 166t180 45h109v-192h-19q-39 0 -50 -15.5t-11 -56.5v-23h80v-192h-80v-979h-260v979h-62z" />
<glyph unicode="&#xfb02;" horiz-adv-x="759" d="M459 0v1458h260v-1458h-260zM12 979v192h62v76q0 121 51 166t180 45h109v-192h-19q-39 0 -50 -15.5t-11 -56.5v-23h80v-192h-80v-979h-260v979h-62z" />
<glyph unicode="&#xfb03;" horiz-adv-x="1177" d="M877 0v1171h260v-1171h-260zM877 1237v221h260v-221h-260zM430 979v192h62v76q0 121 51 166t180 45h109v-192h-19q-39 0 -50 -15.5t-11 -56.5v-23h80v-192h-80v-979h-260v979h-62zM12 979v192h62v76q0 121 51 166t180 45h109v-192h-19q-39 0 -50 -15.5t-11 -56.5v-23h80 v-192h-80v-979h-260v979h-62z" />
<glyph unicode="&#xfb04;" horiz-adv-x="1177" d="M877 0v1458h260v-1458h-260zM430 979v192h62v76q0 121 51 166t180 45h109v-192h-19q-39 0 -50 -15.5t-11 -56.5v-23h80v-192h-80v-979h-260v979h-62zM12 979v192h62v76q0 121 51 166t180 45h109v-192h-19q-39 0 -50 -15.5t-11 -56.5v-23h80v-192h-80v-979h-260v979h-62z " />
</font>
</defs>
</svg>
